<?xml version="1.0" standalone="no"?>
<!DOCTYPE svg PUBLIC "-//W3C//DTD SVG 20010904//EN"
 "http://www.w3.org/TR/2001/REC-SVG-20010904/DTD/svg10.dtd">
<svg version="1.0" xmlns="http://www.w3.org/2000/svg"
 width="500.000000pt" height="500.000000pt" viewBox="0 0 500.000000 500.000000"
 preserveAspectRatio="xMidYMid meet">

<g transform="translate(0.000000,500.000000) scale(0.100000,-0.100000)"
fill="#000000" stroke="none">
<path d="M700 3152 l0 -1582 755 0 755 0 511 511 c281 281 508 505 503 497
-22 -35 -120 -167 -424 -568 l-329 -435 906 -3 c498 -1 908 -1 910 1 2 2 2
713 1 1580 l-3 1575 -260 -255 c-143 -141 -359 -353 -480 -472 -121 -119 -607
-601 -1079 -1071 -472 -470 -848 -839 -834 -820 55 76 433 578 467 619 20 25
56 73 81 107 25 34 78 106 119 159 l74 97 -159 156 c-88 87 -416 409 -729 717
-314 307 -602 591 -640 630 -39 38 -87 86 -108 104 l-37 35 0 -1582z"/>
<path d="M1410 540 l0 -280 25 0 25 0 0 280 0 280 -25 0 -25 0 0 -280z"/>
<path d="M941 759 c-50 -15 -77 -36 -95 -74 -46 -97 7 -163 157 -196 44 -9 57
-16 55 -28 -5 -22 -87 -17 -138 9 l-39 20 -35 -42 c-28 -34 -32 -45 -23 -57
22 -26 96 -52 165 -58 119 -10 189 25 213 106 24 82 -25 135 -152 166 -44 11
-69 22 -69 31 0 19 70 18 116 -1 34 -14 37 -14 54 8 40 48 45 66 24 82 -43 33
-174 52 -233 34z"/>
<path d="M3512 738 c-9 -30 -68 -168 -124 -288 -11 -25 -27 -60 -35 -77 l-13
-33 39 0 c37 0 39 2 59 50 l21 51 102 -3 101 -3 18 -45 c16 -42 20 -45 59 -48
l41 -3 -28 63 c-15 35 -56 132 -92 215 l-65 153 -37 0 c-33 0 -38 -3 -46 -32z
m89 -155 c16 -37 29 -71 29 -75 0 -4 -31 -8 -70 -8 -38 0 -70 2 -70 5 0 3 14
42 31 86 21 56 34 78 41 71 6 -6 24 -41 39 -79z"/>
<path d="M4555 752 c-47 -22 -65 -55 -65 -116 0 -58 31 -90 106 -111 120 -33
146 -54 124 -95 -24 -46 -89 -48 -165 -6 l-41 22 -18 -23 c-17 -23 -17 -25 -1
-43 23 -26 99 -50 154 -50 93 0 161 69 146 147 -9 51 -46 79 -141 108 -85 26
-110 47 -98 80 16 40 93 47 149 14 20 -12 37 -20 38 -18 2 2 11 17 20 32 l18
28 -48 21 c-67 30 -129 33 -178 10z"/>
<path d="M210 550 l0 -210 70 0 69 0 3 98 3 97 45 -69 c50 -77 41 -79 103 19
l32 50 3 -97 3 -98 69 0 70 0 0 210 0 211 -72 -3 -73 -3 -40 -67 c-22 -38 -43
-68 -47 -68 -4 0 -26 32 -49 70 l-41 70 -74 0 -74 0 0 -210z"/>
<path d="M1710 550 l0 -210 35 0 35 0 0 145 c0 80 3 145 8 145 4 0 23 -24 41
-52 19 -29 48 -71 65 -94 l30 -41 31 41 c17 23 46 65 65 93 19 29 38 53 43 53
4 0 7 -65 7 -145 l0 -145 35 0 35 0 0 210 0 210 -42 0 -43 0 -64 -100 c-35
-55 -65 -100 -66 -100 -1 0 -31 45 -66 100 l-64 99 -42 1 -43 0 0 -210z"/>
<path d="M2380 550 l0 -210 155 0 155 0 0 30 0 30 -120 0 -120 0 0 60 0 60
105 0 105 0 0 30 0 30 -105 0 -105 0 0 60 0 60 120 0 120 0 0 30 0 30 -155 0
-155 0 0 -210z"/>
<path d="M2880 730 l0 -30 70 0 70 0 0 -180 0 -180 35 0 35 0 0 180 0 180 70
0 70 0 0 30 0 30 -175 0 -175 0 0 -30z"/>
<path d="M3990 550 l0 -210 145 0 145 0 0 30 0 30 -110 0 -110 0 0 180 0 180
-35 0 -35 0 0 -210z"/>
</g>
</svg>
